<svg xmlns="http://www.w3.org/2000/svg" xmlns:xlink="http://www.w3.org/1999/xlink" width="300"
    zoomAndPan="magnify" viewBox="0 0 375 374.999991" height="300"
    preserveAspectRatio="xMidYMid meet" version="1.0">
    <g fill="#ffc61a" fill-opacity="1">
        <g transform="translate(116.745199, 243.366517)">
            <g>
                <path
                    d="M 12.53125 0 L 11.671875 -3.25 L 6.03125 -3.25 L 5.15625 0 L 0 0 L 5.65625 -17.421875 L 11.921875 -17.421875 L 17.65625 0 Z M 10.703125 -7.09375 L 9.953125 -9.953125 C 9.773438 -10.578125 9.5625 -11.390625 9.3125 -12.390625 C 9.0625 -13.398438 8.898438 -14.125 8.828125 -14.5625 C 8.753906 -14.15625 8.609375 -13.488281 8.390625 -12.5625 C 8.179688 -11.644531 7.71875 -9.820312 7 -7.09375 Z M 10.703125 -7.09375 " />
            </g>
        </g>
    </g>
    <g fill="#ffc61a" fill-opacity="1">
        <g transform="translate(140.544906, 243.366517)">
            <g>
                <path
                    d="M 6.5625 -6.3125 L 6.5625 0 L 1.875 0 L 1.875 -17.359375 L 7.5625 -17.359375 C 12.28125 -17.359375 14.640625 -15.648438 14.640625 -12.234375 C 14.640625 -10.222656 13.65625 -8.664062 11.6875 -7.5625 L 16.75 0 L 11.4375 0 L 7.75 -6.3125 Z M 6.5625 -9.84375 L 7.4375 -9.84375 C 9.082031 -9.84375 9.90625 -10.566406 9.90625 -12.015625 C 9.90625 -13.210938 9.097656 -13.8125 7.484375 -13.8125 L 6.5625 -13.8125 Z M 6.5625 -9.84375 " />
            </g>
        </g>
    </g>
    <g fill="#ffc61a" fill-opacity="1">
        <g transform="translate(163.145993, 243.366517)">
            <g>
                <path
                    d="M 9.4375 0 L 5.890625 -12.5 L 5.78125 -12.5 C 5.945312 -10.375 6.03125 -8.71875 6.03125 -7.53125 L 6.03125 0 L 1.875 0 L 1.875 -17.359375 L 8.125 -17.359375 L 11.734375 -5.03125 L 11.828125 -5.03125 L 15.390625 -17.359375 L 21.640625 -17.359375 L 21.640625 0 L 17.328125 0 L 17.328125 -7.609375 C 17.328125 -8.003906 17.332031 -8.441406 17.34375 -8.921875 C 17.363281 -9.410156 17.421875 -10.597656 17.515625 -12.484375 L 17.40625 -12.484375 L 13.90625 0 Z M 9.4375 0 " />
            </g>
        </g>
    </g>
    <g fill="#ffc61a" fill-opacity="1">
        <g transform="translate(192.796391, 243.366517)">
            <g>
                <path
                    d="M 12.53125 0 L 11.671875 -3.25 L 6.03125 -3.25 L 5.15625 0 L 0 0 L 5.65625 -17.421875 L 11.921875 -17.421875 L 17.65625 0 Z M 10.703125 -7.09375 L 9.953125 -9.953125 C 9.773438 -10.578125 9.5625 -11.390625 9.3125 -12.390625 C 9.0625 -13.398438 8.898438 -14.125 8.828125 -14.5625 C 8.753906 -14.15625 8.609375 -13.488281 8.390625 -12.5625 C 8.179688 -11.644531 7.71875 -9.820312 7 -7.09375 Z M 10.703125 -7.09375 " />
            </g>
        </g>
    </g>
    <g fill="#ffc61a" fill-opacity="1">
        <g transform="translate(216.596095, 243.366517)">
            <g>
                <path
                    d="M 16.609375 -9.046875 C 16.609375 -6.148438 15.8125 -3.914062 14.21875 -2.34375 C 12.625 -0.78125 10.378906 0 7.484375 0 L 1.875 0 L 1.875 -17.359375 L 7.875 -17.359375 C 10.664062 -17.359375 12.816406 -16.644531 14.328125 -15.21875 C 15.847656 -13.789062 16.609375 -11.734375 16.609375 -9.046875 Z M 11.734375 -8.875 C 11.734375 -10.46875 11.421875 -11.644531 10.796875 -12.40625 C 10.171875 -13.175781 9.21875 -13.5625 7.9375 -13.5625 L 6.5625 -13.5625 L 6.5625 -3.84375 L 7.609375 -3.84375 C 9.035156 -3.84375 10.078125 -4.253906 10.734375 -5.078125 C 11.398438 -5.910156 11.734375 -7.175781 11.734375 -8.875 Z M 11.734375 -8.875 " />
            </g>
        </g>
    </g>
    <g fill="#ffc61a" fill-opacity="1">
        <g transform="translate(240.58568, 243.366517)">
            <g>
                <path
                    d="M 12.53125 0 L 11.671875 -3.25 L 6.03125 -3.25 L 5.15625 0 L 0 0 L 5.65625 -17.421875 L 11.921875 -17.421875 L 17.65625 0 Z M 10.703125 -7.09375 L 9.953125 -9.953125 C 9.773438 -10.578125 9.5625 -11.390625 9.3125 -12.390625 C 9.0625 -13.398438 8.898438 -14.125 8.828125 -14.5625 C 8.753906 -14.15625 8.609375 -13.488281 8.390625 -12.5625 C 8.179688 -11.644531 7.71875 -9.820312 7 -7.09375 Z M 10.703125 -7.09375 " />
            </g>
        </g>
    </g>
    <g clip-path="url(#b424a0370a)">
        <path fill="#ffc61a"
            d="M 207.726562 171.800781 L 182.570312 171.800781 L 191.675781 156.019531 C 204.179688 156.019531 216.683594 156.019531 229.160156 156.019531 L 221.523438 142.792969 C 209.019531 142.792969 196.515625 142.792969 184.042969 142.792969 L 150.527344 200.777344 L 135.257812 200.777344 C 149.445312 176.1875 163.660156 151.601562 177.847656 127.011719 C 189.363281 127.011719 200.875 127.011719 212.417969 127.011719 L 204.78125 113.785156 C 193.269531 113.785156 181.757812 113.785156 170.214844 113.785156 C 150.917969 147.183594 131.648438 180.605469 112.351562 214.003906 L 158.191406 214.003906 L 174.933594 184.996094 L 215.363281 184.996094 Z M 207.726562 171.800781 "
            fill-opacity="1" fill-rule="nonzero" />
    </g>
    <g clip-path="url(#11f3415a61)">
        <path fill="#ffc61a"
            d="M 238.265625 171.800781 L 222.996094 171.800781 L 239.738281 200.804688 L 209.199219 200.804688 L 216.835938 214.03125 C 232.105469 214.03125 247.375 214.03125 262.644531 214.03125 Z M 238.265625 171.800781 "
            fill-opacity="1" fill-rule="nonzero" />
    </g>
</svg>